<?xml version="1.0" encoding="UTF-8"?>
<svg width="512px" height="512px" viewBox="0 0 512 512" version="1.1" xmlns="http://www.w3.org/2000/svg" xmlns:xlink="http://www.w3.org/1999/xlink">
    <title>512x512 (Android)@1x</title>
    <defs>
        <polygon id="path-1" points="0 0 512 0 512 512 0 512"></polygon>
        <polygon id="path-3" points="0 0 512 0 512 512 0 512"></polygon>
        <polygon id="path-5" points="0 0 346 0 346 344 0 344"></polygon>
    </defs>
    <g id="512x512-(Android)" stroke="none" stroke-width="1" fill="none" fill-rule="evenodd">
        <rect fill="#FFFFFF" x="0" y="0" width="512" height="512"></rect>
        <g id="Group-12">
            <g id="Group-3">
                <mask id="mask-2" fill="white">
                    <use xlink:href="#path-1"></use>
                </mask>
                <g id="Clip-2"></g>
                <path d="M421.941083,512 L90.0610502,512 C40.3222453,512 -0.00142222617,471.68 -0.00142222617,421.941333 L-0.00142222617,90.0586667 C-0.00142222617,40.32 40.3222453,0 90.0610502,0 L421.941083,0 C471.679888,0 512,40.32 512,90.0586667 L512,421.941333 C512,471.68 471.679888,512 421.941083,512" id="Fill-1" fill="#FEFEFE" mask="url(#mask-2)"></path>
            </g>
            <path d="M160.661245,199.594156 L157.743602,199.594156 C154.801083,199.594156 152.412952,201.982288 152.412952,204.924807 C152.412952,207.867326 154.801083,210.255458 157.743602,210.255458 L162.640693,210.255458 C161.446628,206.86161 160.771412,203.279413 160.661245,199.594156 L160.661245,199.594156 Z M220.958013,173.516612 L223.481188,176.039787 C223.267962,168.605306 217.212342,162.634977 209.728109,162.634977 C207.574526,162.634977 205.55954,163.171596 203.743565,164.05293 C210.211421,165.499314 216.160427,168.715473 220.958013,173.516612 L220.958013,173.516612 Z M193.583344,246.12363 L143.74176,246.12363 C122.859824,246.12363 105.87637,229.136623 105.87637,208.25824 L105.87637,144.74176 C105.87637,123.859824 122.859824,106.87637 143.74176,106.87637 L207.25824,106.87637 C228.136623,106.87637 245.12363,123.859824 245.12363,144.74176 L245.12363,197.685783 L265.021172,217.586879 L265.021172,217.551342 L268.653122,221.183292 C269.527349,217.011169 270,212.689788 270,208.25824 L270,144.74176 C270,110.088976 241.911024,82 207.25824,82 L143.74176,82 C109.088976,82 81,110.088976 81,144.74176 L81,208.25824 C81,242.911024 109.088976,271 143.74176,271 L207.25824,271 C210.769362,271 214.19164,270.64107 217.546396,270.086682 L193.583344,246.12363 Z M155.064062,176.427148 C155.064062,184.042871 148.887614,190.219318 141.271891,190.219318 C133.656168,190.219318 127.479721,184.042871 127.479721,176.427148 C127.479721,168.807871 133.656168,162.634977 141.271891,162.634977 C148.887614,162.634977 155.064062,168.807871 155.064062,176.427148 L155.064062,176.427148 Z" id="Fill-4" fill="#020303"></path>
            <g id="Group-8">
                <mask id="mask-4" fill="white">
                    <use xlink:href="#path-3"></use>
                </mask>
                <g id="Clip-7"></g>
                <path d="M233.454546,482.500226 C233.454546,482.347337 233.461658,482.194447 233.465213,482.04867 L233.465213,481.998892 L89.9983472,481.998892 C56.9174124,481.998892 29.9982639,455.083299 29.9982639,421.998808 L29.9982639,89.9983472 C29.9982639,56.9174124 56.9174124,29.9982639 89.9983472,29.9982639 L421.998808,29.9982639 C455.079743,29.9982639 481.998892,56.9174124 481.998892,89.9983472 L481.998892,176.626023 C485.974008,175.139799 490.148236,174.375353 494.436242,174.375353 C500.66914,174.375353 506.678037,176.000244 512.000711,179.061582 L512.000711,89.9983472 C512.000711,40.2916115 471.705544,0 421.998808,0 L89.9983472,0 C40.2951671,0 0,40.2916115 0,89.9983472 L0,421.998808 C0,471.7091 40.2951671,512.000711 89.9983472,512.000711 L249.251902,512.000711 C239.584333,505.597147 233.447435,494.653131 233.454546,482.500226" id="Fill-6" fill="#020303" mask="url(#mask-4)"></path>
            </g>
            <g id="Group-11" transform="translate(166, 168)">
                <mask id="mask-6" fill="white">
                    <use xlink:href="#path-5"></use>
                </mask>
                <g id="Clip-10"></g>
                <path d="M316.016022,13.8757228 C312.693353,15.3626297 309.576796,17.4613739 306.836927,20.1968557 C295.536299,31.5229598 295.141843,49.4832299 305.404804,61.4247286 L316.016022,72.0429512 L323.094906,79.1288807 C324.512815,80.5588725 324.512815,82.8674911 323.094906,84.2832541 C322.302441,85.0836226 321.247005,85.3930985 320.212891,85.2970542 L320.24132,85.8128473 L319.626537,85.1867812 C319.004647,85.0338219 318.418294,84.7705896 317.942104,84.2832541 L316.016022,82.3659268 L276.456717,42.7779201 C264.637255,34.6283898 248.333078,35.7738061 237.821362,46.2924273 C227.512204,56.6189601 226.18669,72.4876004 233.787962,84.2690253 L267.288283,117.799131 C268.706192,119.214894 268.706192,121.537742 267.281175,122.953505 C265.859713,124.383497 263.556943,124.383497 262.131927,122.960619 L247.266981,108.077322 L215.977035,76.7526754 C204.12559,64.8858778 184.864771,64.9214498 172.995558,76.7918045 C161.137006,88.6586021 161.137006,107.913691 172.995558,119.784045 C172.995558,119.784045 210.479528,157.315994 210.554155,157.387138 C211.979171,158.810015 211.979171,161.118634 210.554155,162.541511 C209.136246,163.964389 206.822815,163.971503 205.397799,162.548626 C205.397799,162.548626 202.36653,159.510783 202.341654,159.510783 L104.409985,61.4816436 L104.409985,61.5172156 L51.8549574,8.90276627 C39.9928516,-2.97114569 20.760462,-2.9640313 8.90190983,8.90276627 C-2.96730328,20.7802354 -2.96730328,40.0282095 8.90190983,51.8985643 L59.9146506,102.95852 L59.9395262,102.95852 L195.682102,238.825526 C200.611024,244.620195 203.525022,248.052886 203.549898,248.088458 C216.190254,262.950413 212.636598,277.108043 194.299729,284.090814 L102.974308,284.090814 C86.3609632,284.090814 72.8854973,297.423175 72.6154194,313.985468 C72.6118657,314.152656 72.6012048,314.319844 72.6012048,314.487033 C72.5940974,328.758493 82.4128507,340.721335 95.6466679,344.001067 L256.048067,344.001067 C305.728186,344.001067 346.001777,303.69095 346.001777,253.957828 L346.001777,16.821079 C337.160279,10.5284037 325.713951,9.52527514 316.016022,13.8757228" id="Fill-9" fill="#CD2028" mask="url(#mask-6)"></path>
            </g>
        </g>
    </g>
</svg>